<?xml version="1.0" standalone="no"?><!DOCTYPE svg PUBLIC "-//W3C//DTD SVG 1.1//EN" "http://www.w3.org/Graphics/SVG/1.1/DTD/svg11.dtd"><svg t="1663859157554" class="icon" viewBox="0 0 1024 1024" version="1.1" xmlns="http://www.w3.org/2000/svg" p-id="7403" width="200" height="200" xmlns:xlink="http://www.w3.org/1999/xlink"><path d="M253 414.5c0 52.191-42.309 94.5-94.5 94.5S64 466.691 64 414.5s42.309-94.5 94.5-94.5 94.5 42.309 94.5 94.5zM736 279c0 57.438-46.562 104-104 104s-104-46.562-104-104 46.562-104 104-104 104 46.562 104 104zM394 800c-53.019 0-96-42.981-96-96s42.981-96 96-96 96 42.981 96 96-42.981 96-96 96z m0 64c88.366 0 160-71.634 160-160s-71.634-160-160-160-160 71.634-160 160 71.634 160 160 160zM960 552c0 53.572-43.428 97-97 97s-97-43.428-97-97 43.428-97 97-97 97 43.428 97 97z" fill="#1296db" p-id="7404"></path><path d="M272 608L112 416l49.166-40.972 160 192L272 608zM431.584 578.285l174-336.001 56.832 29.431-174.001 336.001-56.831-29.431z" fill="#1296db" p-id="7405"></path><path d="M835.83 569.971l-236-272 48.34-41.942 236 272-48.34 41.942z" fill="#1296db" p-id="7406"></path></svg>